PathFileType	4	(X/Y/Z)	/Users/itak/Documents/Research/Walk-IL/dataset/trc/00499_00183.trc
DataRate	CameraRate	NumFrames	NumMarkers	Units	OrigDataRate	OrigDataStartFrame	OrigNumFrames
100.000000	100.000000	4	53	mm	100.000000	587	671
Frame#	Time	RPSI			LPSI			L3			STRN			T10			C7			CLAV			RBAK			LBAK			LSHO			LUPA			LAEL			LAOL			LWTS			LWPS			LFRA			LIFD			LHPS			LHTS			RSHO			RUPA			RAEL			RAOL			RWTS			RWPS			RFRA			RIFD			RHTS			RHPS			RBHD			LFHD			RFHD			LBHD			LHIP			RHIP			RASI			LASI			LKNE			LTHI			LANK			LTIP			LTOE			LMT1			LMT5			LHEE			RKNE			RTHI			RANK			RTIP			RTOE			RMT1			RMT5			RHEE			
		X1	Y1	Z1	X2	Y2	Z2	X3	Y3	Z3	X4	Y4	Z4	X5	Y5	Z5	X6	Y6	Z6	X7	Y7	Z7	X8	Y8	Z8	X9	Y9	Z9	X10	Y10	Z10	X11	Y11	Z11	X12	Y12	Z12	X13	Y13	Z13	X14	Y14	Z14	X15	Y15	Z15	X16	Y16	Z16	X17	Y17	Z17	X18	Y18	Z18	X19	Y19	Z19	X20	Y20	Z20	X21	Y21	Z21	X22	Y22	Z22	X23	Y23	Z23	X24	Y24	Z24	X25	Y25	Z25	X26	Y26	Z26	X27	Y27	Z27	X28	Y28	Z28	X29	Y29	Z29	X30	Y30	Z30	X31	Y31	Z31	X32	Y32	Z32	X33	Y33	Z33	X34	Y34	Z34	X35	Y35	Z35	X36	Y36	Z36	X37	Y37	Z37	X38	Y38	Z38	X39	Y39	Z39	X40	Y40	Z40	X41	Y41	Z41	X42	Y42	Z42	X43	Y43	Z43	X44	Y44	Z44	X45	Y45	Z45	X46	Y46	Z46	X47	Y47	Z47	X48	Y48	Z48	X49	Y49	Z49	X50	Y50	Z50	X51	Y51	Z51	X52	Y52	Z52	X53	Y53	Z53	

588	5.87	580.4073486328125	964.82080078125	324.0492553710938	644.7967529296875	961.7548217773438	218.0603179931641	604.659423828125	1027.964965820312	261.2019653320312	794.8604736328125	1196.3759765625	357.6102600097656	588.960693359375	1132.04345703125	256.7355651855469	620.5836791992188	1364.031372070312	273.7468566894531	761.0874633789062	1290.658203125	340.3399658203125	542.5208129882812	1241.630737304688	331.7266540527344	636.7406616210938	1309.510620117188	184.5792846679688	754.21435546875	1355.805053710938	159.3801422119141	773.52197265625	1230.68505859375	99.29100799560547	797.9906616210938	1020.724243164062	81.45501708984375	701.614013671875	1011.665222167969	101.9271469116211	858.0687255859375	838.3902587890625	160.0277557373047	814.5489501953125	798.2494506835938	86.28988647460938	815.0968017578125	940.3811645507812	88.82002258300781	864.0147094726562	682.1749267578125	177.1114959716797	835.9572143554688	745.7530517578125	105.1631240844727	879.509033203125	761.3154296875	151.409423828125	606.029541015625	1359.983764648438	431.4791870117188	567.215576171875	1293.084106445312	477.2766418457031	560.7471923828125	1025.961303710938	526.4876098632812	529.6998291015625	1008.047973632812	470.3527221679688	674.3837890625	827.4954223632812	539.9285888671875	587.6420288085938	803.3930053710938	554.6854248046875	564.873291015625	971.800048828125	536.10400390625	682.9584350585938	669.1041870117188	542.1466674804688	682.8405151367188	734.7975463867188	568.693603515625	611.3876953125	729.764404296875	565.7384643554688	612.1717529296875	1518.265258789062	354.007080078125	794.8455810546875	1586.286376953125	308.3854064941406	721.8760375976562	1579.695922851562	412.3521728515625	693.1622924804688	1523.05517578125	215.0437316894531	799.6315307617188	885.4811401367188	157.0688323974609	616.2372436523438	866.33154296875	486.9693298339844	730.184326171875	915.1983032226562	477.3292541503906	847.14404296875	920.6064453125	264.8465270996094	766.0535888671875	463.5979919433594	199.1891021728516	801.4409790039062	619.2769775390625	187.63916015625	650.3860473632812	44.75538635253906	172.333251953125	727.7196044921875	315.52294921875	183.0806121826172	800.0621948242188	30.84905052185059	316.2766723632812	715.1881713867188	38.81093978881836	308.0829772949219	751.0994262695312	36.47402954101562	212.6338348388672	581.8226928710938	44.58402252197266	207.3087921142578	652.7676391601562	482.8258361816406	484.8698425292969	635.9493408203125	744.3594360351562	507.7694702148438	586.348876953125	48.47216033935547	452.8115539550781	659.9055786132812	337.6212768554688	477.5318298339844	788.5504760742188	33.70772933959961	491.961181640625	739.992431640625	39.46776962280273	431.2850952148438	684.8068237304688	40.90572738647461	510.3312072753906	556.0426025390625	39.78287124633789	389.5945434570312	
589	5.88	582.3432006835938	964.952880859375	326.1576232910156	646.1386108398438	961.7174682617188	220.0719604492188	605.723388671875	1027.390869140625	263.0821838378906	796.033447265625	1196.4033203125	358.9765319824219	589.7589111328125	1131.60791015625	258.7044982910156	621.1098022460938	1363.6357421875	275.5225219726562	762.0337524414062	1290.621459960938	341.7177124023438	543.536865234375	1241.090576171875	333.8746337890625	637.1048583984375	1309.089111328125	186.3825073242188	754.4091186523438	1355.584350585938	160.6837463378906	773.4608154296875	1230.359497070312	100.6624374389648	797.3331298828125	1020.306701660156	83.13587951660156	701.0348510742188	1011.501953125	104.16748046875	856.8935546875	837.57861328125	161.0292510986328	812.5565795898438	797.2640991210938	87.85404205322266	814.101318359375	939.6904296875	90.31206512451172	861.8912353515625	681.4276733398438	179.3470001220703	833.6964111328125	744.6491088867188	106.9945831298828	877.6826782226562	760.2474975585938	152.8591918945312	607.0995483398438	1359.67919921875	433.3169555664062	568.5865478515625	1292.742309570312	479.33984375	563.1426391601562	1025.724243164062	529.2198486328125	531.8290405273438	1007.544982910156	473.3614196777344	677.3566284179688	827.5457153320312	542.3754272460938	590.8270874023438	803.3153076171875	557.83349609375	567.4773559570312	971.5804443359375	538.9578247070312	686.37353515625	669.2158813476562	545.2673950195312	686.2521362304688	735.02001953125	571.5120239257812	614.8333740234375	729.7643432617188	568.9847412109375	612.6668701171875	1518.08349609375	355.4438781738281	795.0692138671875	1586.282592773438	309.223876953125	722.3765869140625	1579.819946289062	413.3884582519531	693.2539672851562	1522.763671875	216.2976531982422	802.11572265625	885.3909301757812	159.2887725830078	617.8424682617188	866.68115234375	489.0446166992188	732.296142578125	915.1400146484375	479.2189636230469	848.6756591796875	920.4053955078125	266.4666748046875	766.8734741210938	463.5168151855469	200.4060516357422	802.6144409179688	619.1270141601562	189.1748199462891	650.4205322265625	44.94493103027344	172.43115234375	728.1935424804688	315.5921630859375	183.9332733154297	800.0717163085938	30.8039436340332	316.3348083496094	715.2371215820312	38.78173828125	308.1629638671875	751.0894775390625	36.51703262329102	212.6897125244141	581.75830078125	44.7923469543457	207.5028991699219	651.387451171875	482.5401611328125	486.5048828125	637.7992553710938	744.0426025390625	510.1120300292969	586.2117919921875	48.16644668579102	452.9466247558594	658.33154296875	337.5486450195312	478.0559387207031	788.5230102539062	33.7079963684082	491.9620971679688	739.93310546875	39.49741744995117	431.3287048339844	684.7332763671875	40.8088264465332	510.3624572753906	555.9194946289062	39.38824081420898	389.6825866699219	
590	5.89	584.1575317382812	965.0628662109375	328.209716796875	647.36962890625	961.695068359375	222.0373687744141	606.7621459960938	1026.862182617188	264.945068359375	797.1941528320312	1196.413330078125	360.2900390625	590.5328369140625	1131.1923828125	260.5821533203125	621.6646118164062	1363.255249023438	277.2507629394531	762.9779052734375	1290.574951171875	343.0525207519531	544.551513671875	1240.580200195312	335.9621887207031	637.486083984375	1308.674438476562	188.1369171142578	754.6107788085938	1355.3583984375	161.9427947998047	773.4028930664062	1230.026123046875	101.9984359741211	796.6788940429688	1019.88037109375	84.76772308349609	700.47314453125	1011.325439453125	106.4022979736328	855.875732421875	836.7720336914062	161.8686828613281	810.49560546875	796.2717895507812	89.47214508056641	813.0816040039062	938.990234375	91.75692749023438	859.8273315429688	680.7091064453125	181.595947265625	831.3513793945312	743.5254516601562	108.8733062744141	875.9323120117188	759.1533203125	154.1725463867188	608.1956176757812	1359.383422851562	435.1152038574219	569.9620971679688	1292.400024414062	481.35009765625	565.5187377929688	1025.480590820312	531.8480834960938	533.9366455078125	1007.046264648438	476.2598571777344	680.328125	827.6190795898438	544.7882080078125	593.9951171875	803.2442016601562	560.8779296875	570.0673217773438	971.3504638671875	541.697509765625	689.8356323242188	669.3627319335938	548.39599609375	689.649658203125	735.2766723632812	574.331298828125	618.2757568359375	729.7857666015625	572.1614379882812	613.1602172851562	1517.868286132812	356.8614807128906	795.27783203125	1586.295776367188	310.0702209472656	722.8556518554688	1579.9150390625	414.4282836914062	693.3446044921875	1522.468017578125	217.5414581298828	804.2691040039062	885.2720336914062	161.3301849365234	619.010009765625	867.2344360351562	490.9208984375	734.2994995117188	915.044677734375	481.0615844726562	850.1362915039062	920.2024536132812	268.0572204589844	767.719482421875	463.423095703125	201.6755676269531	803.7774047851562	618.9769897460938	190.7259063720703	650.4661254882812	45.1392707824707	172.5079345703125	728.7189331054688	315.6356811523438	184.8479614257812	800.0848388671875	30.7524585723877	316.3985900878906	715.2699584960938	38.73360061645508	308.2442321777344	751.0753784179688	36.56710052490234	212.7565307617188	581.6973876953125	44.98981094360352	207.6841888427734	649.844970703125	482.289794921875	487.9425659179688	639.4852294921875	743.748046875	512.3235473632812	586.0911254882812	47.88797760009766	453.0472106933594	656.6146850585938	337.5154418945312	478.5599060058594	788.49462890625	33.70910263061523	491.9650268554688	739.8845825195312	39.52631378173828	431.3727111816406	684.6723022460938	40.73028564453125	510.386962890625	555.8135986328125	39.02259063720703	389.7373352050781	
591	5.9	585.8272705078125	965.1451416015625	330.2173461914062	648.5005493164062	961.6842041015625	223.9578857421875	607.7708129882812	1026.374145507812	266.7941284179688	798.341796875	1196.405883789062	361.55322265625	591.2826538085938	1130.795532226562	262.3792114257812	622.2474975585938	1362.890747070312	278.9320373535156	763.918701171875	1290.517333984375	344.3443298339844	545.5620727539062	1240.1005859375	337.9931640625	637.8819580078125	1308.2646484375	189.8440093994141	754.818603515625	1355.122802734375	163.1566619873047	773.3427734375	1229.677490234375	103.2988739013672	796.0206909179688	1019.442260742188	86.32951354980469	699.9334716796875	1011.124572753906	108.6437606811523	855.0712890625	835.9666748046875	162.4855194091797	808.3687744140625	795.2938842773438	91.14430999755859	812.0380249023438	938.2818603515625	93.13238525390625	857.936279296875	680.027099609375	183.7922668457031	828.943603515625	742.3924560546875	110.7869338989258	874.3170166015625	758.0386352539062	155.2693328857422	609.3160400390625	1359.099731445312	436.8727722167969	571.3400268554688	1292.0615234375	483.3102111816406	567.8699340820312	1025.235229492188	534.3687133789062	536.0315551757812	1006.560791015625	479.0370178222656	683.2932739257812	827.715087890625	547.1563110351562	597.1339721679688	803.177978515625	563.8004150390625	572.6383666992188	971.114990234375	544.31787109375	693.3200073242188	669.5397338867188	551.4977416992188	693.0196533203125	735.5599365234375	577.1272583007812	621.7027587890625	729.8237915039062	575.2472534179688	613.6524047851562	1517.618408203125	358.2601318359375	795.4797973632812	1586.31884765625	310.9200744628906	723.3189697265625	1579.976318359375	415.4685363769531	693.4393310546875	1522.163940429688	218.7684478759766	806.0728149414062	885.1324462890625	163.1897430419922	619.8348388671875	867.9650268554688	492.6322937011719	736.1851806640625	914.9034423828125	482.854736328125	851.525146484375	920.0004272460938	269.616455078125	768.58740234375	463.3204345703125	202.9789581298828	804.9179077148438	618.8272705078125	192.2739410400391	650.5221557617188	45.33212280273438	172.5587615966797	729.286376953125	315.6507873535156	185.8076171875	800.0994873046875	30.69585800170898	316.4642639160156	715.2906494140625	38.67331695556641	308.3263244628906	751.0574951171875	36.62283325195312	212.8326568603516	581.6533203125	45.17208099365234	207.8459777832031	648.1807861328125	482.0818176269531	489.1726379394531	640.9646606445312	743.4992065429688	514.3844604492188	585.9783935546875	47.64197540283203	453.114013671875	654.79736328125	337.5111083984375	479.0436401367188	788.4642944335938	33.71245956420898	491.9697570800781	739.8439331054688	39.55533981323242	431.4183959960938	684.625	40.6683235168457	510.4069213867188	555.7263793945312	38.68695068359375	389.7622375488281	
